<svg xmlns="http://www.w3.org/2000/svg" width="139.427" height="56.629" viewBox="0 0 139.427 56.629">
    <defs>
        <style>
            .cls-1{fill:#cda148}.cls-2{fill:#98999b}
        </style>
    </defs>
    <g id="_67732830_511855112887715_3097838663678033920_o1" data-name="67732830_511855112887715_3097838663678033920_o1" transform="translate(-266.256 -448.892)">
        <path id="Path_444" d="M356.153 449.8a3.972 3.972 0 0 1 6.376 2.054c-.057 1.731.292 3.785-1.058 5.14a3.762 3.762 0 0 1-5.948-.766 6.681 6.681 0 0 1 .63-6.428z" class="cls-1" data-name="Path 444" transform="translate(-42.477)"/>
        <path id="Path_445" d="M278.592 461.1a21.072 21.072 0 0 1 29.428 15.243 21.382 21.382 0 0 1-3.06 15.514c3.8 3.806 7.627 7.58 11.391 11.417a4.278 4.278 0 1 1-6.339 5.745c-3.717-3.691-7.408-7.408-11.12-11.1a21.082 21.082 0 1 1-20.3-36.815m6.548 5.578a13.764 13.764 0 0 0 2.377 27.353c7.6.115 14.263-7.064 13.528-14.644-.255-7.832-8.21-14.171-15.905-12.712z" class="cls-1" data-name="Path 445" transform="translate(0 -4.943)"/>
        <path id="Path_446" d="M357.231 469.95a3.733 3.733 0 0 1 4.864 1.574 6.214 6.214 0 0 1 .464 2.977c-.026 8.331-.005 16.661-.016 24.992a3.722 3.722 0 1 1-7.434.052c-.021-8.518 0-17.036-.01-25.56a3.9 3.9 0 0 1 2.132-4.035z" class="cls-1" data-name="Path 446" transform="translate(-42.517 -9.908)"/>
        <g id="_98999bff" data-name="#98999bff" transform="translate(326.368 459.957)">
            <path id="Path_930" d="M389.345 470.41c2.93-.4 6.141-.516 8.81.97a9.8 9.8 0 0 1 5.13 9.113 1.989 1.989 0 0 1-2.992 1.256c-1.006-.563-.829-1.835-1.058-2.794a5.825 5.825 0 0 0-5.448-4.786c-1.835-.078-3.853-.2-5.453.865a5.935 5.935 0 0 0-2.57 6.657c.532 1.621 2.294 2.273 3.79 2.7 3.779 1.074 8.059 1.121 11.255 3.675 2.236 1.778 2.872 4.89 2.367 7.59a9.914 9.914 0 0 1-8.868 8.112c-2.278.125-4.681.2-6.8-.782a9.851 9.851 0 0 1-5.9-9.451 1.992 1.992 0 0 1 3.743-.433c.276 1.731.469 3.649 1.84 4.921 1.939 2.127 5.093 2.059 7.71 1.642a5.908 5.908 0 0 0 4.238-7.309c-.537-1.569-2.247-2.169-3.691-2.586-3.707-1.053-7.861-1.116-11.057-3.508-2.591-1.872-3.274-5.437-2.555-8.409a9.956 9.956 0 0 1 7.509-7.443z" class="cls-2" data-name="Path 930" transform="translate(-381.564 -470.132)"/>
            <path id="Path_931" d="M436.862 480.537a9.839 9.839 0 0 1 8.315-10.212c2.617-.25 5.432-.355 7.841.881a9.9 9.9 0 0 1 5.536 8.768q.031 7.046 0 14.1a9.918 9.918 0 0 1-7.038 9.326 17 17 0 0 1-5.787.36 9.9 9.9 0 0 1-8.888-9.2c-.026-2.382-.162-4.905.85-7.121.933-1.8 3.17-2.132 4.989-2.283 3.967-.235 7.945-.1 11.917-.13-.151-2.935.73-6.381-1.418-8.8-1.642-2.054-4.457-2.289-6.887-2.044a5.819 5.819 0 0 0-5.411 4.968c-.214.839-.057 1.9-.85 2.471a1.986 1.986 0 0 1-3.17-1.084m4.165 8.795a21.451 21.451 0 0 0-.172 5.573 5.89 5.89 0 0 0 5.427 4.921c2.429.24 5.25.026 6.892-2.033 2.158-2.429 1.262-5.886 1.418-8.821-4.519.162-9.08-.323-13.564.36z" class="cls-2" data-name="Path 931" transform="translate(-408.015 -470.141)"/>
            <path id="Path_932" d="M497.274 471.291a14.349 14.349 0 0 1 9.368-.725 9.846 9.846 0 0 1 7.074 9.91 1.976 1.976 0 0 1-2.784 1.366c-1.183-.485-1.032-1.929-1.3-2.945a5.726 5.726 0 0 0-4.588-4.64c-2.612-.381-5.667-.308-7.559 1.814a18.56 18.56 0 0 0-1.235 1.882c-.7 8.049.005 16.187-.36 24.257-.235 2.226-3.957 1.965-3.842-.3-.089-7.314-.031-14.633-.026-21.947a10.08 10.08 0 0 1 4.343-8.132z" class="cls-2" data-name="Path 932" transform="translate(-434.426 -470.117)"/>
        </g>
    </g>
</svg>
